# xmcd
#
# Track frame offsets: 
#        150
#        8332
#        28755
#        52028
#        57559
#        74045
#        90040
#        112953
#        120762
#        132691
#        155817
#        173779
#
# Disc length: 2752 seconds
#
# Revision: 0
# Processed by: cddbd v1.5.2PL0 Copyright (c) Steve Scherf et al.
# Submitted via: ExactAudioCopy v1.0b1
#
DISCID=9c0abe0c
DTITLE=Versus - Mr Blue
DYEAR=2012
DGENRE=Soul
TTITLE0=Intro
TTITLE1=Mr. Blue
TTITLE2=Marauders
TTITLE3=Alerte
TTITLE4=Theme From Bobbin Street
TTITLE5=(How to) Play the Game
TTITLE6=Almost Noon
TTITLE7=The Letter
TTITLE8=Everyday Fever
TTITLE9=The Don Walks In
TTITLE10=Museum Of Life
TTITLE11=End Credits
EXTD=
EXTT0=
EXTT1=
EXTT2=
EXTT3=
EXTT4=
EXTT5=
EXTT6=
EXTT7=
EXTT8=
EXTT9=
EXTT10=
EXTT11=
PLAYORDER=
